<svg width="64" height="64" viewBox="0 0 64 64" fill="none" xmlns="http://www.w3.org/2000/svg">
<rect x="-1.52588e-05" width="64" height="64" rx="32" fill="#003128"/>
<path d="M38 18H26C25.2053 18.0032 24.4441 18.3202 23.8822 18.8822C23.3202 19.4441 23.0031 20.2053 23 21V43C23.0034 43.7946 23.3206 44.5557 23.8824 45.1175C24.4443 45.6794 25.2054 45.9966 26 46H38C38.7946 45.9966 39.5557 45.6794 40.1175 45.1175C40.6794 44.5557 40.9966 43.7946 41 43V21C40.9966 20.2054 40.6794 19.4443 40.1175 18.8825C39.5557 18.3206 38.7946 18.0034 38 18ZM26 20H38C38.2652 20 38.5196 20.1054 38.7071 20.2929C38.8946 20.4804 39 20.7348 39 21V22H25V21C25 20.7348 25.1053 20.4804 25.2929 20.2929C25.4804 20.1054 25.7348 20 26 20ZM38 44H26C25.7348 44 25.4804 43.8946 25.2929 43.7071C25.1053 43.5196 25 43.2652 25 43V42H39V43C39 43.2652 38.8946 43.5196 38.7071 43.7071C38.5196 43.8946 38.2652 44 38 44Z" fill="#01F38D"/>
</svg>
