<svg width="174" height="46" viewBox="0 0 174 46" fill="none" xmlns="http://www.w3.org/2000/svg">
<g opacity="0.95">
<path d="M12.9871 17.1551C13.136 17.007 13.2542 16.8309 13.3347 16.637C13.4153 16.443 13.4567 16.2351 13.4565 16.0251C13.4563 15.8151 13.4146 15.6072 13.3337 15.4134C13.2528 15.2196 13.1344 15.0437 12.9853 14.8959C12.8361 14.7481 12.6591 14.6312 12.4646 14.5521C12.2701 14.473 12.0619 14.4331 11.8519 14.4348C11.6419 14.4365 11.4343 14.4798 11.2411 14.5621C11.0479 14.6444 10.8729 14.7641 10.7262 14.9144C9.40013 16.2539 8.501 17.9565 8.14241 19.8069C7.78383 21.6573 7.9819 23.5726 8.7116 25.3104C9.44128 27.0483 10.6698 28.5308 12.2419 29.5706C13.814 30.6106 15.6591 31.1609 17.544 31.1522C19.4287 31.1437 21.2688 30.5764 22.8314 29.5223C24.3939 28.4681 25.6088 26.9744 26.3225 25.2298C27.0363 23.4853 27.2169 21.5684 26.8412 19.7213C26.4657 17.8742 25.5511 16.18 24.2128 14.8526C24.0644 14.7055 23.8884 14.589 23.6948 14.51C23.5013 14.4309 23.2942 14.3906 23.085 14.3916C22.876 14.3926 22.6692 14.4347 22.4765 14.5156C22.2837 14.5965 22.1088 14.7146 21.9616 14.8631C21.8145 15.0116 21.698 15.1876 21.6191 15.3811C21.5399 15.5746 21.4998 15.7818 21.5006 15.9908C21.5016 16.1998 21.5438 16.4066 21.6246 16.5994C21.7056 16.7922 21.8237 16.9671 21.9721 17.1142C22.8645 17.9987 23.4747 19.1279 23.7254 20.3591C23.976 21.5903 23.8559 22.8682 23.3804 24.0312C22.9048 25.1942 22.0951 26.1901 21.0535 26.8929C20.012 27.5956 18.7855 27.9738 17.5291 27.9797C16.2726 27.9854 15.0426 27.6184 13.9947 26.9252C12.9468 26.2319 12.128 25.2435 11.6418 24.0849C11.1556 22.9264 11.0238 21.6497 11.2632 20.4162C11.5026 19.1828 12.1023 18.048 12.9866 17.1554L12.9871 17.1551Z" fill="#01F28D"/>
<path d="M24.1856 6.88501C23.1401 6.8869 22.1053 7.09614 21.1412 7.50063C20.1771 7.90512 19.3028 8.49682 18.5689 9.24148C18.2715 9.54091 17.8676 9.71016 17.4456 9.71207C17.0236 9.714 16.618 9.54843 16.318 9.25169C14.8175 7.76842 12.79 6.94084 10.6802 6.9505C8.57033 6.96017 6.55047 7.80627 5.06366 9.30322C2.62903 11.7624 0.978158 14.8882 0.319716 18.2855C-0.338726 21.6828 0.0248226 25.199 1.36441 28.3896C2.704 31.5804 4.95949 34.3023 7.84575 36.2114C10.732 38.1204 14.1195 39.1309 17.58 39.115C21.0405 39.0993 24.4185 38.0578 27.2872 36.1225C30.156 34.1872 32.3865 31.4447 33.6968 28.2421C35.0072 25.0392 35.3386 21.5198 34.6491 18.1287C33.9597 14.7375 32.2804 11.627 29.8233 9.19011C29.0828 8.45222 28.2031 7.86854 27.2353 7.47287C26.2676 7.07719 25.231 6.87739 24.1856 6.88501ZM27.5823 11.4512C29.5949 13.4454 30.9709 15.9916 31.5363 18.7678C32.1017 21.544 31.8313 24.4255 30.759 27.048C29.6868 29.6705 27.8611 31.9161 25.5125 33.501C23.164 35.0858 20.3983 35.9386 17.5651 35.9515C14.7319 35.9646 11.9585 35.1371 9.59562 33.5738C7.23271 32.0106 5.38641 29.7816 4.29023 27.1692C3.19405 24.5567 2.89721 21.6777 3.43723 18.8964C3.97725 16.1151 5.32989 13.5564 7.32409 11.5439C8.21627 10.6457 9.42824 10.1381 10.6942 10.1323C11.9602 10.1265 13.1767 10.623 14.0771 11.513C14.9773 12.403 16.1937 12.8996 17.4596 12.8938C18.7255 12.888 19.9373 12.3803 20.8293 11.4822C21.7207 10.5827 22.9329 10.0741 24.1993 10.0683C25.4656 10.0625 26.6824 10.5599 27.582 11.4512" fill="#01F28D"/>
<path d="M17.5001 24.444C18.9284 24.444 20.0862 23.2862 20.0862 21.858C20.0862 20.4297 18.9284 19.2719 17.5001 19.2719C16.0719 19.2719 14.9141 20.4297 14.9141 21.858C14.9141 23.2862 16.0719 24.444 17.5001 24.444Z" fill="#01F28D"/>
</g>
<path d="M64.8286 21.9057C64.8286 24.161 64.3714 25.9184 63.4571 27.1781C62.5632 28.4175 61.2832 29.281 59.6171 29.7686C57.9511 30.2562 55.9905 30.5 53.7352 30.5H48.8286V13.3419H53.7352C55.9905 13.3419 57.9511 13.667 59.6171 14.3171C61.2832 14.947 62.5632 15.8917 63.4571 17.1514C64.3714 18.4111 64.8286 19.9959 64.8286 21.9057ZM53.0343 27.0257H55.0457C56.1429 27.0257 57.0775 26.8937 57.8495 26.6295C58.6419 26.3451 59.2413 25.8371 59.6476 25.1057C60.0743 24.354 60.2876 23.2771 60.2876 21.8752C60.2876 20.2498 59.8203 19.0308 58.8857 18.2181C57.9714 17.4054 56.6914 16.999 55.0457 16.999H53.0343V27.0257ZM73.2095 30.8048C71.6857 30.8048 70.4565 30.5 69.5219 29.8905C68.5873 29.281 67.8965 28.4987 67.4495 27.5438C67.0229 26.5686 66.7892 25.5527 66.7486 24.4962C66.7079 23.1146 66.9517 21.926 67.48 20.9305C68.0083 19.9146 68.7498 19.1425 69.7048 18.6143C70.68 18.0657 71.7975 17.7914 73.0571 17.7914C74.2559 17.7914 75.3225 18.0454 76.2571 18.5533C77.2121 19.041 77.9537 19.7419 78.4819 20.6562C79.0305 21.5705 79.3048 22.6676 79.3048 23.9476V24.74H70.7714C70.7714 25.634 70.9848 26.2841 71.4114 26.6905C71.8584 27.0968 72.4273 27.3 73.1181 27.3C73.7073 27.3 74.1746 27.1679 74.52 26.9038C74.8857 26.6194 75.099 26.2638 75.16 25.8371H79.2743C79.2133 26.7311 78.9492 27.5641 78.4819 28.3362C78.0146 29.0879 77.3441 29.6873 76.4705 30.1343C75.5968 30.5813 74.5098 30.8048 73.2095 30.8048ZM70.8324 23.0333H75.0381C75.0381 23.0333 75.0279 22.9419 75.0076 22.759C75.0076 22.5762 74.9467 22.3629 74.8248 22.119C74.7029 21.8752 74.4997 21.6619 74.2152 21.479C73.9308 21.2962 73.5143 21.2048 72.9657 21.2048C72.4171 21.2048 71.9905 21.2962 71.6857 21.479C71.381 21.6619 71.1676 21.8752 71.0457 22.119C70.9441 22.3629 70.8832 22.5762 70.8629 22.759C70.8425 22.9419 70.8324 23.0333 70.8324 23.0333ZM87.2174 30.8048C87.0752 30.8048 86.7704 30.7844 86.3031 30.7438C85.8561 30.7235 85.338 30.6422 84.7488 30.5C84.1799 30.3375 83.6212 30.0835 83.0726 29.7381C82.524 29.3927 82.0669 28.9254 81.7012 28.3362C81.3558 27.7267 81.1831 26.9444 81.1831 25.9895H85.084C85.084 26.0098 85.084 26.1114 85.084 26.2943C85.1044 26.4771 85.1653 26.6803 85.2669 26.9038C85.3888 27.1273 85.5818 27.3305 85.846 27.5133C86.1304 27.6759 86.5469 27.7571 87.0955 27.7571C87.7863 27.7571 88.2129 27.6352 88.3755 27.3914C88.538 27.1476 88.6193 26.9648 88.6193 26.8429C88.6193 26.5381 88.4466 26.2943 88.1012 26.1114C87.7558 25.9286 87.3088 25.766 86.7602 25.6238C86.2117 25.4613 85.6225 25.2886 84.9926 25.1057C84.3831 24.9025 83.804 24.6486 83.2555 24.3438C82.7069 24.0187 82.2599 23.6022 81.9145 23.0943C81.5691 22.5863 81.3964 21.9362 81.3964 21.1438C81.3964 19.8435 81.8739 18.8987 82.8288 18.3095C83.804 17.7203 85.0231 17.4257 86.486 17.4257C88.3145 17.4257 89.7977 17.8524 90.9355 18.7057C92.0936 19.5387 92.6929 20.7679 92.7336 22.3933H88.8936C88.8936 21.6822 88.6599 21.2048 88.1926 20.961C87.7456 20.7171 87.2479 20.5952 86.6993 20.5952C86.1101 20.5952 85.724 20.6968 85.5412 20.9C85.3583 21.0829 85.2669 21.2759 85.2669 21.479C85.2669 21.8448 85.4396 22.1394 85.785 22.3629C86.1507 22.566 86.6079 22.7489 87.1564 22.9114C87.7253 23.074 88.3247 23.2467 88.9545 23.4295C89.6047 23.6124 90.204 23.8562 90.7526 24.161C91.3215 24.4454 91.7787 24.8314 92.124 25.319C92.4898 25.7863 92.6726 26.3959 92.6726 27.1476C92.6726 28.326 92.185 29.2302 91.2098 29.86C90.2548 30.4898 88.924 30.8048 87.2174 30.8048ZM97.1452 16.4505C96.2716 16.4708 95.6925 16.2676 95.4081 15.841C95.1236 15.4143 94.9814 14.9063 94.9814 14.3171C94.9814 13.7483 95.1236 13.2606 95.4081 12.8543C95.7129 12.4479 96.2919 12.2448 97.1452 12.2448C97.9783 12.2448 98.537 12.4479 98.8214 12.8543C99.1059 13.2606 99.2481 13.7483 99.2481 14.3171C99.2481 14.9267 99.1059 15.4346 98.8214 15.841C98.537 16.227 97.9783 16.4302 97.1452 16.4505ZM95.0119 30.5V17.8829H99.2786V30.5H95.0119ZM105.779 36.5648V32.5419H110.563V28.7933H110.502C110.502 28.7933 110.431 28.8949 110.289 29.0981C110.167 29.3013 109.964 29.5349 109.68 29.799C109.395 30.0632 109.009 30.2968 108.521 30.5C108.034 30.7032 107.424 30.8048 106.693 30.8048C105.433 30.8048 104.438 30.5508 103.706 30.0429C102.975 29.5146 102.457 28.773 102.152 27.8181C101.847 26.8632 101.695 25.7356 101.695 24.4352C101.695 22.3425 102.06 20.7273 102.792 19.5895C103.523 18.4517 104.824 17.8829 106.693 17.8829C107.465 17.8829 108.095 18.0048 108.582 18.2486C109.09 18.4721 109.476 18.7362 109.74 19.041C110.025 19.3457 110.218 19.62 110.32 19.8638C110.441 20.0873 110.502 20.199 110.502 20.199H110.563V17.8829H114.952V30.5C114.952 32.0644 114.739 33.2835 114.312 34.1571C113.906 35.0511 113.286 35.6708 112.453 36.0162C111.64 36.3819 110.624 36.5648 109.405 36.5648H105.779ZM108.186 27.3C108.918 27.3 109.446 27.1679 109.771 26.9038C110.116 26.6194 110.33 26.2638 110.411 25.8371C110.513 25.3902 110.563 24.9229 110.563 24.4352C110.563 23.9476 110.513 23.4905 110.411 23.0638C110.33 22.6168 110.116 22.2613 109.771 21.9971C109.446 21.733 108.918 21.601 108.186 21.601C107.475 21.601 106.947 21.733 106.601 21.9971C106.256 22.2613 106.033 22.6168 105.931 23.0638C105.85 23.4905 105.809 23.9476 105.809 24.4352C105.809 24.9229 105.85 25.3902 105.931 25.8371C106.033 26.2638 106.256 26.6194 106.601 26.9038C106.947 27.1679 107.475 27.3 108.186 27.3ZM116.936 30.5V17.9438H120.623L121.324 20.199H121.385C121.385 20.199 121.436 20.0873 121.538 19.8638C121.66 19.62 121.863 19.3457 122.147 19.041C122.432 18.7362 122.828 18.4721 123.336 18.2486C123.864 18.0048 124.534 17.8829 125.347 17.8829C126.261 17.8829 126.993 18.0454 127.541 18.3705C128.11 18.6956 128.537 19.1222 128.821 19.6505C129.126 20.1584 129.329 20.7171 129.431 21.3267C129.533 21.9159 129.583 22.4949 129.583 23.0638C129.604 23.6124 129.614 24.0797 129.614 24.4657V30.5H125.469V24.4352C125.469 23.9883 125.428 23.5514 125.347 23.1248C125.286 22.6981 125.113 22.3425 124.829 22.0581C124.545 21.7533 124.057 21.601 123.366 21.601C122.696 21.601 122.218 21.7533 121.934 22.0581C121.649 22.3425 121.477 22.6981 121.416 23.1248C121.355 23.5514 121.324 23.9883 121.324 24.4352V30.5H116.936ZM131.757 30.5V27.4524L138.462 20.8695H132.184V17.7914H143.308V20.7781L136.847 27.3914H143.308V30.5H131.757ZM145.745 30.5V27.4524L152.45 20.8695H146.172V17.7914H157.296V20.7781L150.835 27.3914H157.296V30.5H145.745ZM165.95 30.8048C164.467 30.8048 163.228 30.5305 162.232 29.9819C161.237 29.413 160.495 28.641 160.008 27.6657C159.52 26.6905 159.276 25.5832 159.276 24.3438C159.256 23.0841 159.49 21.9768 159.977 21.0219C160.465 20.0467 161.206 19.2746 162.202 18.7057C163.218 18.1368 164.467 17.8524 165.95 17.8524C168.124 17.8524 169.77 18.4517 170.888 19.6505C172.025 20.8289 172.594 22.3933 172.594 24.3438C172.594 25.5629 172.35 26.66 171.863 27.6352C171.396 28.6105 170.674 29.3825 169.699 29.9514C168.724 30.5203 167.474 30.8048 165.95 30.8048ZM165.95 27.2695C166.702 27.2695 167.261 27.1171 167.627 26.8124C167.992 26.5076 168.226 26.1216 168.328 25.6543C168.45 25.1667 168.51 24.679 168.51 24.1914C168.51 23.6835 168.45 23.1959 168.328 22.7286C168.226 22.2613 167.992 21.8752 167.627 21.5705C167.261 21.2454 166.702 21.0829 165.95 21.0829C165.199 21.0829 164.63 21.2454 164.244 21.5705C163.878 21.8752 163.634 22.2613 163.512 22.7286C163.411 23.1959 163.36 23.6835 163.36 24.1914C163.36 24.679 163.411 25.1667 163.512 25.6543C163.634 26.1216 163.878 26.5076 164.244 26.8124C164.63 27.1171 165.199 27.2695 165.95 27.2695Z" fill="#02FF95"/>
</svg>
