<svg width="25" height="26" viewBox="0 0 25 26" fill="none" xmlns="http://www.w3.org/2000/svg">
<g opacity="0.2">
<path fill-rule="evenodd" clip-rule="evenodd" d="M1.41388 8.50001C1.41388 7.83697 1.67727 7.20109 2.14611 6.73224C2.61495 6.2634 3.25084 6.00001 3.91388 6.00001H20.9139C21.5769 6.00001 22.2128 6.2634 22.6816 6.73224C23.1505 7.20109 23.4139 7.83697 23.4139 8.50001V19.5C23.4139 20.1631 23.1505 20.7989 22.6816 21.2678C22.2128 21.7366 21.5769 22 20.9139 22H3.91388C3.25084 22 2.61495 21.7366 2.14611 21.2678C1.67727 20.7989 1.41388 20.1631 1.41388 19.5V8.50001ZM9.76788 13.647L12.0599 15.939C12.1063 15.9856 12.1615 16.0225 12.2222 16.0477C12.283 16.0729 12.3481 16.0859 12.4139 16.0859C12.4796 16.0859 12.5448 16.0729 12.6055 16.0477C12.6663 16.0225 12.7214 15.9856 12.7679 15.939L15.0599 13.647L20.5599 8.14701C20.6536 8.05312 20.7808 8.00033 20.9135 8.00023C20.9792 8.00019 21.0443 8.01308 21.105 8.03818C21.1657 8.06328 21.2209 8.10009 21.2674 8.14651C21.3139 8.19293 21.3508 8.24806 21.3759 8.30874C21.4011 8.36942 21.4141 8.43446 21.4142 8.50016C21.4142 8.56586 21.4013 8.63092 21.3762 8.69163C21.3511 8.75235 21.3143 8.80752 21.2679 8.85401L16.1209 14L21.2679 19.146C21.3618 19.2399 21.4145 19.3672 21.4145 19.5C21.4145 19.6328 21.3618 19.7601 21.2679 19.854C21.174 19.9479 21.0467 20.0006 20.9139 20.0006C20.7811 20.0006 20.6538 19.9479 20.5599 19.854L15.4139 14.707L13.4739 16.647C13.1926 16.9279 12.8114 17.0857 12.4139 17.0857C12.0164 17.0857 11.6351 16.9279 11.3539 16.647L9.41388 14.706L4.26788 19.853C4.17399 19.9469 4.04666 19.9996 3.91388 19.9996C3.7811 19.9996 3.65377 19.9469 3.55988 19.853C3.46599 19.7591 3.41325 19.6318 3.41325 19.499C3.41325 19.3662 3.46599 19.2389 3.55988 19.145L8.70688 14L3.55988 8.85401C3.51339 8.80752 3.47652 8.75233 3.45136 8.6916C3.4262 8.63086 3.41325 8.56576 3.41325 8.50001C3.41325 8.43427 3.4262 8.36917 3.45136 8.30843C3.47652 8.24769 3.51339 8.1925 3.55988 8.14601C3.60637 8.09952 3.66156 8.06265 3.7223 8.03749C3.78304 8.01233 3.84814 7.99938 3.91388 7.99938C3.97962 7.99938 4.04472 8.01233 4.10546 8.03749C4.1662 8.06265 4.22139 8.09952 4.26788 8.14601L9.76788 13.646V13.647Z" fill="#040C10"/>
</g>
</svg>
