<svg width="107" height="21" viewBox="0 0 107 21" fill="none" xmlns="http://www.w3.org/2000/svg">
<path d="M18.0928 8.86026C18.1744 8.45259 17.8482 7.96339 17.4406 7.96339L12.7932 7.31113L10.6733 3.0714C10.5918 2.90833 10.5102 2.8268 10.3472 2.74526C9.93952 2.50067 9.45032 2.66373 9.20572 3.0714L7.16739 7.31113L2.51999 7.96339C2.27539 7.96339 2.11233 8.04492 2.03079 8.20799C1.70466 8.53412 1.70466 9.02332 2.03079 9.34946L5.37366 12.6108L4.55832 17.2582C4.55832 17.4212 4.55832 17.5843 4.63986 17.7474C4.88446 18.155 5.37366 18.3181 5.78132 18.0735L9.93952 15.8721L14.0977 18.0735C14.1792 18.155 14.3423 18.155 14.5054 18.155C14.5869 18.155 14.5869 18.155 14.6684 18.155C15.0761 18.0735 15.4022 17.6658 15.3207 17.1766L14.5054 12.5293L17.8482 9.26792C18.0113 9.18639 18.0928 9.02332 18.0928 8.86026Z" fill="#FDB022"/>
<path d="M42.265 8.86027C42.3466 8.45261 42.0204 7.96341 41.6128 7.96341L36.9654 7.31114L34.8455 3.07141C34.764 2.90835 34.6824 2.82681 34.5194 2.74528C34.1117 2.50068 33.6225 2.66375 33.3779 3.07141L31.3396 7.31114L26.6922 7.96341C26.4476 7.96341 26.2845 8.04494 26.203 8.20801C25.8769 8.53414 25.8769 9.02334 26.203 9.34947L29.5459 12.6108L28.7305 17.2582C28.7305 17.4213 28.7305 17.5843 28.8121 17.7474C29.0567 18.1551 29.5459 18.3181 29.9535 18.0735L34.1117 15.8721L38.2699 18.0735C38.3514 18.1551 38.5145 18.1551 38.6776 18.1551C38.7591 18.1551 38.7591 18.1551 38.8406 18.1551C39.2483 18.0735 39.5744 17.6659 39.4929 17.1767L38.6776 12.5293L42.0204 9.26794C42.1835 9.1864 42.265 9.02334 42.265 8.86027Z" fill="#FDB022"/>
<path d="M66.4371 8.86027C66.5186 8.45261 66.1925 7.96341 65.7848 7.96341L61.1374 7.31114L59.0176 3.07141C58.936 2.90835 58.8545 2.82681 58.6914 2.74528C58.2838 2.50068 57.7946 2.66375 57.55 3.07141L55.5116 7.31114L50.8642 7.96341C50.6196 7.96341 50.4566 8.04494 50.375 8.20801C50.0489 8.53414 50.0489 9.02334 50.375 9.34947L53.7179 12.6108L52.9026 17.2582C52.9026 17.4213 52.9026 17.5843 52.9841 17.7474C53.2287 18.1551 53.7179 18.3181 54.1256 18.0735L58.2838 15.8721L62.442 18.0735C62.5235 18.1551 62.6866 18.1551 62.8496 18.1551C62.9312 18.1551 62.9312 18.1551 63.0127 18.1551C63.4204 18.0735 63.7465 17.6659 63.665 17.1767L62.8496 12.5293L66.1925 9.26794C66.3556 9.1864 66.4371 9.02334 66.4371 8.86027Z" fill="#FDB022"/>
<path d="M90.6096 8.86027C90.6911 8.45261 90.365 7.96341 89.9573 7.96341L85.3099 7.31114L83.1901 3.07141C83.1086 2.90835 83.027 2.82681 82.864 2.74528C82.4563 2.50068 81.9671 2.66375 81.7225 3.07141L79.6842 7.31114L75.0368 7.96341C74.7922 7.96341 74.6291 8.04494 74.5476 8.20801C74.2214 8.53414 74.2214 9.02334 74.5476 9.34947L77.8904 12.6108L77.0751 17.2582C77.0751 17.4213 77.0751 17.5843 77.1566 17.7474C77.4012 18.1551 77.8904 18.3181 78.2981 18.0735L82.4563 15.8721L86.6145 18.0735C86.696 18.1551 86.8591 18.1551 87.0221 18.1551C87.1037 18.1551 87.1037 18.1551 87.1852 18.1551C87.5929 18.0735 87.919 17.6659 87.8375 17.1767L87.0221 12.5293L90.365 9.26794C90.5281 9.1864 90.6096 9.02334 90.6096 8.86027Z" fill="#FDB022"/>
<g clip-path="url(#clip0_1_238)">
<path d="M114.633 8.8542C114.715 8.44653 114.389 7.95733 113.981 7.95733L109.334 7.30507L107.214 3.06534C107.132 2.90227 107.051 2.82074 106.888 2.73921C106.48 2.49461 105.991 2.65767 105.746 3.06534L103.708 7.30507L99.0606 7.95733C98.816 7.95733 98.653 8.03887 98.5714 8.20193C98.2453 8.52807 98.2453 9.01726 98.5714 9.3434L101.914 12.6047L101.099 17.2521C101.099 17.4152 101.099 17.5783 101.18 17.7413C101.425 18.149 101.914 18.3121 102.322 18.0675L106.48 15.8661L110.638 18.0675C110.72 18.149 110.883 18.149 111.046 18.149C111.128 18.149 111.128 18.149 111.209 18.149C111.617 18.0675 111.943 17.6598 111.861 17.1706L111.046 12.5232L114.389 9.26187C114.552 9.18033 114.633 9.01727 114.633 8.8542Z" fill="#FDB022"/>
</g>
<defs>
<clipPath id="clip0_1_238">
<rect width="10" height="19" fill="white" transform="translate(96.8444 0.909378)"/>
</clipPath>
</defs>
</svg>
