<svg width="65" height="64" viewBox="0 0 65 64" fill="none" xmlns="http://www.w3.org/2000/svg">
<rect x="0.299988" width="64" height="64" rx="32" fill="#003128"/>
<path d="M25.6307 19.9067C24.2162 19.9067 22.8596 20.4686 21.8594 21.4688C20.8592 22.469 20.2973 23.8255 20.2973 25.24V38.5733C20.2973 39.9878 20.8592 41.3444 21.8594 42.3446C22.8596 43.3448 24.2162 43.9067 25.6307 43.9067H38.964C40.3785 43.9067 41.735 43.3448 42.7352 42.3446C43.7354 41.3444 44.2973 39.9878 44.2973 38.5733V25.24C44.2973 23.8255 43.7354 22.469 42.7352 21.4688C41.735 20.4686 40.3785 19.9067 38.964 19.9067H25.6307ZM26.964 25.24C27.3176 25.24 27.6568 25.3805 27.9068 25.6305C28.1569 25.8806 28.2973 26.2197 28.2973 26.5733C28.2973 26.927 28.1569 27.2661 27.9068 27.5162C27.6568 27.7662 27.3176 27.9067 26.964 27.9067C26.6104 27.9067 26.2712 27.7662 26.0212 27.5162C25.7711 27.2661 25.6307 26.927 25.6307 26.5733C25.6307 26.2197 25.7711 25.8806 26.0212 25.6305C26.2712 25.3805 26.6104 25.24 26.964 25.24ZM30.964 25.24H37.6307C37.9843 25.24 38.3234 25.3805 38.5735 25.6305C38.8235 25.8806 38.964 26.2197 38.964 26.5733C38.964 26.927 38.8235 27.2661 38.5735 27.5162C38.3234 27.7662 37.9843 27.9067 37.6307 27.9067H30.964C30.6104 27.9067 30.2712 27.7662 30.0212 27.5162C29.7711 27.2661 29.6307 26.927 29.6307 26.5733C29.6307 26.2197 29.7711 25.8806 30.0212 25.6305C30.2712 25.3805 30.6104 25.24 30.964 25.24ZM26.964 30.5733C27.3176 30.5733 27.6568 30.7138 27.9068 30.9639C28.1569 31.2139 28.2973 31.5531 28.2973 31.9067C28.2973 32.2603 28.1569 32.5994 27.9068 32.8495C27.6568 33.0995 27.3176 33.24 26.964 33.24C26.6104 33.24 26.2712 33.0995 26.0212 32.8495C25.7711 32.5994 25.6307 32.2603 25.6307 31.9067C25.6307 31.5531 25.7711 31.2139 26.0212 30.9639C26.2712 30.7138 26.6104 30.5733 26.964 30.5733ZM30.964 30.5733H37.6307C37.9843 30.5733 38.3234 30.7138 38.5735 30.9639C38.8235 31.2139 38.964 31.5531 38.964 31.9067C38.964 32.2603 38.8235 32.5994 38.5735 32.8495C38.3234 33.0995 37.9843 33.24 37.6307 33.24H30.964C30.6104 33.24 30.2712 33.0995 30.0212 32.8495C29.7711 32.5994 29.6307 32.2603 29.6307 31.9067C29.6307 31.5531 29.7711 31.2139 30.0212 30.9639C30.2712 30.7138 30.6104 30.5733 30.964 30.5733ZM26.964 35.9067C27.3176 35.9067 27.6568 36.0472 27.9068 36.2972C28.1569 36.5472 28.2973 36.8864 28.2973 37.24C28.2973 37.5936 28.1569 37.9328 27.9068 38.1828C27.6568 38.4329 27.3176 38.5733 26.964 38.5733C26.6104 38.5733 26.2712 38.4329 26.0212 38.1828C25.7711 37.9328 25.6307 37.5936 25.6307 37.24C25.6307 36.8864 25.7711 36.5472 26.0212 36.2972C26.2712 36.0472 26.6104 35.9067 26.964 35.9067ZM30.964 35.9067H37.6307C37.9843 35.9067 38.3234 36.0472 38.5735 36.2972C38.8235 36.5472 38.964 36.8864 38.964 37.24C38.964 37.5936 38.8235 37.9328 38.5735 38.1828C38.3234 38.4329 37.9843 38.5733 37.6307 38.5733H30.964C30.6104 38.5733 30.2712 38.4329 30.0212 38.1828C29.7711 37.9328 29.6307 37.5936 29.6307 37.24C29.6307 36.8864 29.7711 36.5472 30.0212 36.2972C30.2712 36.0472 30.6104 35.9067 30.964 35.9067Z" fill="#01F38D"/>
</svg>
