<svg width="65" height="64" viewBox="0 0 65 64" fill="none" xmlns="http://www.w3.org/2000/svg">
<rect x="0.700012" width="64" height="64" rx="32" fill="#003128"/>
<path d="M42.7 21H22.7C21.9044 21 21.1413 21.3161 20.5787 21.8787C20.0161 22.4413 19.7 23.2044 19.7 24V38C19.7 38.7956 20.0161 39.5587 20.5787 40.1213C21.1413 40.6839 21.9044 41 22.7 41H42.7C43.4957 41 44.2587 40.6839 44.8213 40.1213C45.3839 39.5587 45.7 38.7956 45.7 38V24C45.7 23.2044 45.3839 22.4413 44.8213 21.8787C44.2587 21.3161 43.4957 21 42.7 21Z" fill="#01F38D"/>
<path d="M36.7 43H28.7C28.4348 43 28.1804 43.1054 27.9929 43.2929C27.8054 43.4804 27.7 43.7348 27.7 44C27.7 44.2652 27.8054 44.5196 27.9929 44.7071C28.1804 44.8946 28.4348 45 28.7 45H36.7C36.9652 45 37.2196 44.8946 37.4071 44.7071C37.5947 44.5196 37.7 44.2652 37.7 44C37.7 43.7348 37.5947 43.4804 37.4071 43.2929C37.2196 43.1054 36.9652 43 36.7 43Z" fill="#01F38D"/>
</svg>
